PathFileType	4	(X/Y/Z)	C:/Users/opensim2020/Desktop/walking_exp_matlab/subject01_walking06_straight_01.trc	
DataRate	CameraRate	NumFrames	NumMarkers	Units	OrigDataRate	OrigDataStartFrame	OrigNumFrames	
100.00	100.00	5	43	mm	100.00	954	251	
Frame#	Time	LFHD			RFHD			LBHD			RBHD			C7			T10			CLAV			STRN			RBAK			LSHO			LUPA			LELB			LFRM			LWRA			LWRB			LFIN			RSHO			RUPA			RELB			RFRM			RWRA			RWRB			RFIN			LASI			RASI			LPSI			RPSI			LTHI			LKNE			LTIB			LANK			LHEE			LTOE			RTHI			RKNE			RTIB			RANK			RHEE			RTOE			*39			*40			*41			*42			
		X1	Y1	Z1	X2	Y2	Z2	X3	Y3	Z3	X4	Y4	Z4	X5	Y5	Z5	X6	Y6	Z6	X7	Y7	Z7	X8	Y8	Z8	X9	Y9	Z9	X10	Y10	Z10	X11	Y11	Z11	X12	Y12	Z12	X13	Y13	Z13	X14	Y14	Z14	X15	Y15	Z15	X16	Y16	Z16	X17	Y17	Z17	X18	Y18	Z18	X19	Y19	Z19	X20	Y20	Z20	X21	Y21	Z21	X22	Y22	Z22	X23	Y23	Z23	X24	Y24	Z24	X25	Y25	Z25	X26	Y26	Z26	X27	Y27	Z27	X28	Y28	Z28	X29	Y29	Z29	X30	Y30	Z30	X31	Y31	Z31	X32	Y32	Z32	X33	Y33	Z33	X34	Y34	Z34	X35	Y35	Z35	X36	Y36	Z36	X37	Y37	Z37	X38	Y38	Z38	X39	Y39	Z39	X40	Y40	Z40	X41	Y41	Z41	X42	Y42	Z42	X43	Y43	Z43	

189	1.880	1453.20520	266.29562	1670.67908	1562.96619	295.84912	1682.16357	1479.50500	171.99666	1591.74207	1595.85571	201.02591	1602.18860	1508.27307	172.81308	1426.79688	1505.25586	136.92511	1134.67224	1503.73975	317.29059	1360.45422	1497.67468	359.46997	1203.95496	1584.72009	119.59584	1233.39063	1344.73975	255.09409	1392.30212	1260.61157	205.27081	1211.21704	1263.70862	172.06299	1065.83435	1239.36804	187.33559	953.11810	1263.10339	236.49962	821.59735	1233.61292	184.09523	830.60510	1234.86670	210.53424	747.12402	1656.06873	257.35226	1385.45300	1762.83057	230.78667	1183.92212	1770.71436	256.43372	1059.50281	1794.43396	330.08313	960.00488	1765.55371	448.48972	888.21082	1805.95410	411.36362	869.21130	1802.56946	478.67450	818.63013	1400.43652	319.32138	931.51624	1617.88074	303.04568	926.33667	1434.67017	129.94994	939.29822	1578.50305	118.69225	945.93475	1326.00159	363.52264	612.05908	1347.57715	395.83475	484.37363	1333.65356	405.19260	301.25955	1379.65735	464.48215	84.90344	1436.40869	434.45950	43.12757	1369.86951	611.35077	89.11911	1654.49622	191.08531	601.02954	1624.84778	169.57451	442.92786	1622.71899	82.51862	288.48767	1564.43665	20.88293	91.54588	1512.04211	-31.71769	64.38354	1563.78687	154.43604	34.41506	1544.27209	269.77756	1709.76123	-3102.07690	1973.02307	1023.82355	-3140.66187	2012.61572	1022.03577			 
190	1.890	1452.07654	275.78928	1669.80042	1561.81140	305.45123	1681.32080	1478.56702	181.47189	1590.95557	1594.81091	210.62274	1601.41138	1507.24524	182.41862	1425.89221	1504.21851	145.96051	1134.03613	1502.80212	326.92377	1359.58911	1496.96899	369.28946	1203.18347	1583.57642	129.32916	1232.38855	1343.76624	264.80563	1391.25146	1259.61597	214.91994	1210.13196	1262.80469	181.43240	1064.90930	1238.68188	196.25290	952.08942	1262.47119	244.88751	820.35815	1232.97217	192.48807	829.56476	1234.60535	218.59422	745.78827	1655.11426	266.81522	1384.65027	1762.06909	240.50908	1183.40625	1770.13440	266.15884	1058.85950	1793.74060	340.55328	959.84131	1764.60791	459.43475	889.01709	1805.12280	422.64691	869.75610	1801.69702	490.41910	819.85767	1400.14722	329.63675	930.21490	1617.47729	312.85379	925.52344	1433.23865	140.09009	938.55005	1576.99731	128.34715	945.31531	1325.67090	371.65561	610.63593	1347.73096	404.26181	483.26721	1334.79272	417.23087	300.14871	1382.16553	479.78690	84.57027	1438.97083	451.42712	42.76026	1372.10266	627.19012	91.88794	1654.46399	198.52135	600.76245	1624.87756	175.82127	442.54007	1622.74268	86.49255	289.45734	1564.78320	21.89010	93.36492	1512.44995	-31.05868	66.98066	1563.92151	154.61682	34.43991	1543.15320	279.37195	1708.91650	-3101.99438	1973.13098	1023.63367	-3140.54834	2012.64893	1022.09766			 
191	1.900	1450.86121	285.22540	1668.90381	1560.59570	315.02429	1680.48877	1477.49475	191.02840	1590.08374	1593.71899	220.22870	1600.63928	1506.13074	191.96831	1424.97717	1502.96912	156.22449	1132.78943	1501.81165	336.62198	1358.77502	1496.12805	379.15125	1202.42920	1582.28943	139.02940	1231.41174	1342.67627	274.57104	1390.21606	1258.58984	224.73578	1208.97375	1261.92212	190.96852	1063.94861	1237.84094	205.43277	951.01422	1261.77466	253.72900	819.14941	1232.20483	201.39655	828.48737	1234.24548	227.01508	744.38525	1654.11597	276.39264	1383.92029	1761.08936	250.04846	1182.76514	1769.47595	275.80469	1058.22620	1792.95337	350.74127	959.59821	1763.60364	470.08838	889.61700	1804.09985	433.41473	869.98096	1800.58801	501.53397	820.62262	1399.81567	339.93423	929.00171	1617.04846	322.69025	924.60120	1431.89417	150.32771	937.82318	1575.62537	138.29765	944.64996	1325.62952	380.93390	609.66833	1348.09583	413.34329	482.26498	1336.17908	428.01633	298.77621	1384.57788	493.43665	84.75568	1441.69812	465.34674	42.63086	1374.60388	640.75293	93.12255	1654.33398	206.53116	600.58099	1625.01245	182.55264	442.38342	1622.84778	90.70234	290.51053	1565.35596	23.10981	95.38704	1512.97681	-30.31912	69.76538	1564.02002	154.76938	34.41131	1541.90210	288.94308	1708.06848	-3102.09839	1973.06274	1023.88641	-3140.67554	2012.53796	1022.05225			 
192	1.910	1449.59521	294.71149	1668.10596	1559.29651	324.65121	1679.72607	1476.32361	200.58171	1589.27148	1592.53357	229.92516	1599.86536	1505.01575	201.66870	1424.10059	1501.81763	166.20816	1131.83423	1500.72900	346.42590	1358.05444	1495.15784	389.12341	1201.73560	1581.02356	148.93279	1230.37305	1341.50562	284.37790	1389.18970	1257.43225	234.56477	1207.85596	1260.97156	200.62299	1062.80933	1236.89868	215.04158	949.93262	1260.93994	262.96613	817.96924	1231.32825	210.69191	827.35480	1233.67505	236.05006	743.11877	1653.02344	286.01913	1383.20190	1760.00525	259.57623	1182.11987	1768.70520	285.29770	1057.61084	1792.07043	360.74094	959.35748	1762.53894	480.32309	889.97070	1803.11169	443.85742	870.17133	1799.56494	512.35516	821.25275	1399.33118	350.31442	927.92108	1616.71924	332.12659	923.38733	1430.64746	160.65875	937.13733	1574.33765	148.28398	944.10852	1325.81360	391.40112	609.02240	1348.70886	423.11551	481.29272	1337.90234	438.23795	297.47736	1387.28601	504.55380	83.72314	1444.61157	477.01611	41.92717	1377.31604	652.19739	92.91160	1653.94836	214.70494	600.21570	1625.20142	189.57904	442.09113	1623.07825	95.27036	291.74054	1565.90686	24.27151	97.62403	1513.59387	-29.50126	72.91743	1564.22290	154.92264	34.33770	1540.63843	298.59354	1707.29883	-3101.85400	1973.07446	1023.36786	-3140.62476	2012.68945	1022.10779			 
193	1.920	1448.23730	304.18259	1667.27795	1557.88977	334.31485	1678.99854	1475.13708	210.08006	1588.46643	1591.22375	239.57834	1599.16272	1503.72925	211.34947	1423.22327	1500.72498	176.31673	1130.99182	1499.57214	356.27524	1357.33948	1494.13940	399.21011	1201.11755	1579.69507	158.84850	1229.40308	1340.26868	294.08768	1388.21423	1256.32007	244.65326	1206.72705	1259.94275	210.52145	1061.72034	1235.87524	224.92384	948.82983	1259.99426	272.74878	816.88531	1230.35986	220.46326	826.23053	1233.03235	245.58958	741.81586	1651.85034	295.71463	1382.55066	1758.81372	269.00900	1181.51160	1767.81238	294.71164	1057.04614	1791.15601	370.55545	959.06531	1761.38928	490.31299	890.08691	1802.25256	454.12939	870.31622	1798.44934	522.65424	821.63501	1398.59888	360.79822	927.02612	1615.96790	342.28680	922.56976	1429.50134	171.06131	936.45984	1573.16711	158.45784	943.59985	1326.34436	402.78342	608.59076	1349.60266	433.43478	480.41095	1339.70654	447.76193	296.04202	1390.07068	513.63538	82.07118	1447.54309	486.20618	40.83160	1380.11755	661.41168	91.21591	1653.74109	223.44527	600.16254	1625.46472	197.21785	441.82828	1623.32788	100.19341	293.08096	1566.82898	25.89396	99.98923	1514.37341	-28.67931	76.83273	1564.41284	155.13689	34.33125	1539.21997	308.20035	1706.54102	-3101.89868	1973.26062	1023.30548	-3140.64478	2012.52185	1022.05103			 
